<svg width="12" height="12" viewBox="0 0 12 12" fill="none" xmlns="http://www.w3.org/2000/svg">
<g clip-path="url(#clip0_4121_112)">
<path fill-rule="evenodd" clip-rule="evenodd" d="M1.125 0.75C0.917893 0.75 0.75 0.917893 0.75 1.125V9.375H0V1.125C0 0.50368 0.50368 0 1.125 0H11.1723C11.6735 0 11.9244 0.605894 11.5701 0.960247L5.38189 7.14844H7.125V6.375H7.875V7.33594C7.875 7.6466 7.62316 7.89844 7.3125 7.89844H4.63189L3.34283 9.1875H9.1875V4.5H9.9375V9.1875C9.9375 9.60171 9.60171 9.9375 9.1875 9.9375H2.59283L1.28033 11.25H10.875C11.0821 11.25 11.25 11.0821 11.25 10.875V2.625H12V10.875C12 11.4963 11.4963 12 10.875 12H0.827665C0.32653 12 0.0755631 11.3941 0.429917 11.0398L6.59467 4.875H4.875V5.625H4.125V4.6875C4.125 4.37684 4.37684 4.125 4.6875 4.125H7.34467L8.65717 2.8125H2.8125V7.5H2.0625V2.8125C2.0625 2.39829 2.39829 2.0625 2.8125 2.0625H9.40717L10.7197 0.75H1.125Z" fill="black" style="fill:black;fill-opacity:1;"/>
</g>
<defs>
<clipPath id="clip0_4121_112">
<rect width="12" height="12" fill="white" style="fill:white;fill-opacity:1;"/>
</clipPath>
</defs>
</svg>
