<svg width="12" height="12" viewBox="0 0 12 12" fill="none" xmlns="http://www.w3.org/2000/svg">
<path opacity="0.2" d="M7.49911 1.49908H7.50009V5.00006H10.0001L4.50009 10.5001V7.00006H1.99911V6.99908L7.49911 1.49908Z" stroke="black" style="stroke:black;stroke-opacity:1;" stroke-miterlimit="16"/>
<path d="M7.99999 1.49998C8.00017 1.40096 7.97094 1.30412 7.91602 1.22173C7.86109 1.13934 7.78293 1.07511 7.69146 1.03719C7.59998 0.999277 7.49931 0.989374 7.4022 1.00874C7.3051 1.02811 7.21592 1.07587 7.14599 1.14598L1.64599 6.64598C1.57589 6.71591 1.52812 6.80508 1.50876 6.90219C1.48939 6.9993 1.49929 7.09997 1.53721 7.19144C1.57513 7.28292 1.63935 7.36107 1.72174 7.416C1.80413 7.47093 1.90097 7.50016 1.99999 7.49998H3.99999V10.5C3.99982 10.599 4.02905 10.6958 4.08397 10.7782C4.1389 10.8606 4.21706 10.9248 4.30853 10.9628C4.4 11.0007 4.50068 11.0106 4.59779 10.9912C4.69489 10.9719 4.78407 10.9241 4.85399 10.854L10.354 5.35398C10.4241 5.28405 10.4719 5.19488 10.4912 5.09777C10.5106 5.00066 10.5007 4.89999 10.4628 4.80852C10.4249 4.71704 10.3606 4.63889 10.2782 4.58396C10.1959 4.52903 10.099 4.4998 9.99999 4.49998H7.99999V1.49998Z" fill="black" style="fill:black;fill-opacity:1;"/>
</svg>
