<svg width="12" height="12" viewBox="0 0 12 12" fill="none" xmlns="http://www.w3.org/2000/svg">
<path fill-rule="evenodd" clip-rule="evenodd" d="M10.78 2.61997C10.9205 2.7606 10.9993 2.95122 10.9993 3.14997C10.9993 3.34873 10.9205 3.53935 10.78 3.67997L4.683 9.77698C4.61261 9.84729 4.52894 9.9029 4.43685 9.94057C4.34477 9.97823 4.2461 9.9972 4.14662 9.99636C4.04713 9.99552 3.9488 9.9749 3.85736 9.93569C3.76592 9.89648 3.68319 9.83947 3.614 9.76797L1.211 7.28397C1.07396 7.14078 0.999174 6.94916 1.00298 6.751C1.0068 6.55283 1.08889 6.36423 1.23134 6.22641C1.37378 6.08859 1.56499 6.01276 1.76317 6.01549C1.96136 6.01822 2.15041 6.09928 2.289 6.24097L4.162 8.17697L9.72 2.61997C9.86063 2.47952 10.0512 2.40063 10.25 2.40063C10.4488 2.40063 10.6394 2.47952 10.78 2.61997Z" fill="black" style="fill:black;fill-opacity:1;"/>
</svg>
