<svg width="12" height="12" viewBox="0 0 12 12" fill="none" xmlns="http://www.w3.org/2000/svg">
<path d="M3.59863 7.69336C3.69748 8.03632 3.86818 8.34803 4.09277 8.61328L3 9.70703V11H2V9.29297L3.59863 7.69336ZM10 9.29297V11H9V9.70703L7.90625 8.61328C8.13099 8.348 8.30147 8.03643 8.40039 7.69336L10 9.29297ZM3.5 6.5H1V5.5H3.5V6.5ZM11 6.5H8.5V5.5H11V6.5ZM3 2.29297L4.09277 3.38574C3.86814 3.65088 3.69759 3.96281 3.59863 4.30566L2 2.70703V1H3V2.29297ZM10 2.70703L8.40039 4.30566C8.30136 3.9627 8.13103 3.65091 7.90625 3.38574L9 2.29297V1H10V2.70703Z" fill="black" style="fill:black;fill-opacity:1;"/>
<path d="M3.99997 5C3.99997 3.89543 4.8954 3 5.99997 3C7.10454 3 7.99997 3.89543 7.99997 5V7C7.99997 8.10457 7.10454 9 5.99997 9C4.8954 9 3.99997 8.10457 3.99997 7V5Z" fill="black" style="fill:black;fill-opacity:1;"/>
</svg>
