<svg width="12" height="12" viewBox="0 0 12 12" fill="none" xmlns="http://www.w3.org/2000/svg">
<path fill-rule="evenodd" clip-rule="evenodd" d="M8.62499 3.37502C8.8239 3.37502 9.01467 3.296 9.15532 3.15535C9.29597 3.0147 9.37499 2.82393 9.37499 2.62502C9.37499 2.42611 9.29597 2.23534 9.15532 2.09469C9.01467 1.95404 8.8239 1.87502 8.62499 1.87502C8.42608 1.87502 8.23531 1.95404 8.09466 2.09469C7.95401 2.23534 7.87499 2.42611 7.87499 2.62502C7.87499 2.82393 7.95401 3.0147 8.09466 3.15535C8.23531 3.296 8.42608 3.37502 8.62499 3.37502ZM10.5 2.62502C10.4999 3.04029 10.362 3.44378 10.1079 3.77225C9.85382 4.10072 9.49791 4.33558 9.09599 4.44002C8.94433 4.99574 8.61418 5.4862 8.15638 5.83585C7.69859 6.18549 7.13854 6.37494 6.56249 6.37502H5.43749C5.0883 6.37497 4.75003 6.49675 4.481 6.71937C4.21197 6.94198 4.02904 7.25149 3.96374 7.59452C4.38816 7.73474 4.74856 8.02191 4.98002 8.4043C5.21147 8.78669 5.29876 9.23916 5.22617 9.68021C5.15358 10.1213 4.92588 10.5219 4.58408 10.8099C4.24228 11.098 3.80885 11.2545 3.36188 11.2513C2.91491 11.2481 2.48377 11.0854 2.14614 10.7925C1.8085 10.4996 1.58656 10.0957 1.5203 9.65366C1.45404 9.21161 1.54781 8.76043 1.78472 8.3814C2.02163 8.00236 2.3861 7.72039 2.81249 7.58627V4.41377C2.38495 4.27937 2.01965 3.99634 1.78274 3.6159C1.54583 3.23547 1.45296 2.78279 1.52095 2.3398C1.58893 1.89682 1.81328 1.49282 2.15337 1.20094C2.49346 0.909061 2.92682 0.748596 3.37499 0.748596C3.82316 0.748596 4.25652 0.909061 4.59661 1.20094C4.9367 1.49282 5.16105 1.89682 5.22903 2.3398C5.29702 2.78279 5.20415 3.23547 4.96724 3.6159C4.73033 3.99634 4.36503 4.27937 3.93749 4.41377V5.72027C4.37737 5.41327 4.90108 5.24909 5.43749 5.25002H6.56249C6.85117 5.25004 7.13372 5.16677 7.37624 5.01019C7.61876 4.85361 7.81095 4.63037 7.92974 4.36727C7.61349 4.241 7.3376 4.031 7.13168 3.75979C6.92576 3.48859 6.79758 3.16643 6.7609 2.82789C6.72422 2.48934 6.78043 2.14721 6.92349 1.83819C7.06656 1.52918 7.29107 1.26496 7.57294 1.0739C7.85481 0.882831 8.18339 0.772134 8.52341 0.753686C8.86343 0.735237 9.20206 0.809735 9.50295 0.969182C9.80383 1.12863 10.0556 1.36701 10.2313 1.65873C10.4069 1.95045 10.4998 2.2845 10.5 2.62502ZM4.12499 9.37502C4.12499 9.57393 4.04597 9.7647 3.90532 9.90535C3.76467 10.046 3.5739 10.125 3.37499 10.125C3.17608 10.125 2.98531 10.046 2.84466 9.90535C2.70401 9.7647 2.62499 9.57393 2.62499 9.37502C2.62499 9.17611 2.70401 8.98534 2.84466 8.84469C2.98531 8.70404 3.17608 8.62502 3.37499 8.62502C3.5739 8.62502 3.76467 8.70404 3.90532 8.84469C4.04597 8.98534 4.12499 9.17611 4.12499 9.37502ZM4.12499 2.62502C4.12499 2.82393 4.04597 3.0147 3.90532 3.15535C3.76467 3.296 3.5739 3.37502 3.37499 3.37502C3.17608 3.37502 2.98531 3.296 2.84466 3.15535C2.70401 3.0147 2.62499 2.82393 2.62499 2.62502C2.62499 2.42611 2.70401 2.23534 2.84466 2.09469C2.98531 1.95404 3.17608 1.87502 3.37499 1.87502C3.5739 1.87502 3.76467 1.95404 3.90532 2.09469C4.04597 2.23534 4.12499 2.42611 4.12499 2.62502Z" fill="black" style="fill:black;fill-opacity:1;"/>
</svg>
