<svg width="12" height="12" viewBox="0 0 12 12" fill="none" xmlns="http://www.w3.org/2000/svg">
<path fill-rule="evenodd" clip-rule="evenodd" d="M8.31601 5.5933C8.31601 5.95085 8.24559 6.30491 8.10876 6.63525C7.97193 6.96559 7.77137 7.26574 7.51854 7.51858C7.26571 7.77141 6.96555 7.97196 6.63521 8.1088C6.30487 8.24563 5.95081 8.31605 5.59326 8.31605C5.2357 8.31605 4.88164 8.24563 4.5513 8.1088C4.22096 7.97196 3.92081 7.77141 3.66798 7.51858C3.41515 7.26574 3.21459 6.96559 3.07776 6.63525C2.94093 6.30491 2.8705 5.95085 2.8705 5.5933C2.8705 4.87118 3.15736 4.17863 3.66798 3.66802C4.17859 3.1574 4.87114 2.87054 5.59326 2.87054C6.31538 2.87054 7.00792 3.1574 7.51854 3.66802C8.02915 4.17863 8.31601 4.87118 8.31601 5.5933ZM7.95933 8.92232C7.12469 9.51573 6.09757 9.77393 5.08153 9.64573C4.06549 9.51754 3.13469 9.01231 2.4736 8.23018C1.81251 7.44805 1.46938 6.44611 1.51221 5.42291C1.55504 4.39971 1.98071 3.42994 2.70486 2.7058C3.429 1.98166 4.39876 1.55599 5.42196 1.51316C6.44516 1.47033 7.44711 1.81346 8.22924 2.47455C9.01137 3.13564 9.51659 4.06644 9.64479 5.08248C9.77298 6.09852 9.51479 7.12564 8.92137 7.96028L11.2929 10.3309C11.3598 10.3932 11.4134 10.4684 11.4506 10.5519C11.4878 10.6354 11.5078 10.7255 11.5094 10.8169C11.5111 10.9083 11.4942 10.9991 11.46 11.0838C11.4258 11.1686 11.3748 11.2456 11.3102 11.3102C11.2455 11.3748 11.1685 11.4258 11.0838 11.46C10.999 11.4943 10.9082 11.5111 10.8168 11.5095C10.7255 11.5079 10.6353 11.4879 10.5518 11.4507C10.4683 11.4135 10.3932 11.3598 10.3309 11.2929L7.95933 8.92232Z" fill="black" style="fill:black;fill-opacity:1;"/>
</svg>
