<svg width="12" height="12" viewBox="0 0 12 12" fill="none" xmlns="http://www.w3.org/2000/svg">
<path d="M3.5 6.50763C2.70435 6.50763 1.94129 6.8237 1.37868 7.38631C0.816071 7.94892 0.5 8.71198 0.5 9.50763V10.0076H6.5V9.50763C6.5 8.71198 6.18393 7.94892 5.62132 7.38631C5.05871 6.8237 4.29565 6.50763 3.5 6.50763Z" fill="black" style="fill:black;fill-opacity:1;"/>
<path d="M1.66667 4.00753C1.66667 4.49376 1.85983 4.96007 2.20364 5.30389C2.54746 5.64771 3.01377 5.84086 3.50001 5.84086C3.98624 5.84086 4.45255 5.64771 4.79637 5.30389C5.14018 4.96007 5.33334 4.49376 5.33334 4.00753C5.33334 3.5213 5.14018 3.05498 4.79637 2.71117C4.45255 2.36735 3.98624 2.17419 3.50001 2.17419C3.01377 2.17419 2.54746 2.36735 2.20364 2.71117C1.85983 3.05498 1.66667 3.5213 1.66667 4.00753Z" fill="black" style="fill:black;fill-opacity:1;"/>
<path d="M6.66667 4.00753C6.66667 4.49376 6.85983 4.96007 7.20364 5.30389C7.54746 5.64771 8.01377 5.84086 8.50001 5.84086C8.98624 5.84086 9.45255 5.64771 9.79637 5.30389C10.1402 4.96007 10.3333 4.49376 10.3333 4.00753C10.3333 3.5213 10.1402 3.05498 9.79637 2.71117C9.45255 2.36735 8.98624 2.17419 8.50001 2.17419C8.01377 2.17419 7.54746 2.36735 7.20364 2.71117C6.85983 3.05498 6.66667 3.5213 6.66667 4.00753Z" fill="black" style="fill:black;fill-opacity:1;"/>
<path d="M6.697 7.11413C7.21572 6.72065 7.84892 6.50765 8.5 6.50763C9.29565 6.50763 10.0587 6.8237 10.6213 7.38631C11.1839 7.94892 11.5 8.71198 11.5 9.50763V10.0076H7.5V9.50763C7.49983 8.64369 7.21791 7.80337 6.697 7.11413Z" fill="black" style="fill:black;fill-opacity:1;"/>
</svg>
