<svg width="12" height="12" viewBox="0 0 12 12" fill="none" xmlns="http://www.w3.org/2000/svg">
<g clip-path="url(#clip0_4130_930)">
<path d="M6 0C7.5913 0 9.11742 0.632141 10.2426 1.75736C11.3679 2.88258 12 4.4087 12 6C12 7.5913 11.3679 9.11742 10.2426 10.2426C9.11742 11.3679 7.5913 12 6 12C4.4087 12 2.88258 11.3679 1.75736 10.2426C0.632141 9.11742 0 7.5913 0 6C0 4.4087 0.632141 2.88258 1.75736 1.75736C2.88258 0.632141 4.4087 0 6 0ZM6 0.857143C5.32463 0.857143 4.65587 0.990167 4.03191 1.24862C3.40795 1.50707 2.84101 1.88589 2.36345 2.36345C1.88589 2.84101 1.50707 3.40795 1.24862 4.03191C0.990167 4.65587 0.857143 5.32463 0.857143 6C0.857143 6.67537 0.990167 7.34413 1.24862 7.96809C1.50707 8.59205 1.88589 9.15899 2.36345 9.63655C2.84101 10.1141 3.40795 10.4929 4.03191 10.7514C4.65587 11.0098 5.32463 11.1429 6 11.1429C7.36397 11.1429 8.67208 10.601 9.63655 9.63655C10.601 8.67208 11.1429 7.36397 11.1429 6C11.1429 4.63603 10.601 3.32792 9.63655 2.36345C8.67208 1.39898 7.36397 0.857143 6 0.857143Z" fill="black" style="fill:black;fill-opacity:1;"/>
<path d="M5.14286 2.99998C5.14286 2.74284 5.31429 2.57141 5.57143 2.57141H6.42857C6.68572 2.57141 6.85715 2.74284 6.85715 2.99998V6.42855C6.85715 6.6857 6.68572 6.85713 6.42857 6.85713H5.57143C5.31429 6.85713 5.14286 6.6857 5.14286 6.42855V2.99998ZM5.14286 8.14284C5.14286 7.8857 5.31429 7.71427 5.57143 7.71427H6.42857C6.68572 7.71427 6.85715 7.8857 6.85715 8.14284V8.99998C6.85715 9.25713 6.68572 9.42855 6.42857 9.42855H5.57143C5.31429 9.42855 5.14286 9.25713 5.14286 8.99998V8.14284Z" fill="black" style="fill:black;fill-opacity:1;"/>
</g>
<defs>
<clipPath id="clip0_4130_930">
<rect width="12" height="12" fill="white" style="fill:white;fill-opacity:1;"/>
</clipPath>
</defs>
</svg>
