<svg width="12" height="12" viewBox="0 0 12 12" fill="none" xmlns="http://www.w3.org/2000/svg">
<g clip-path="url(#clip0_4123_3862)">
<path d="M5.99998 1L4.93777 4.22944C4.8834 4.39472 4.79099 4.54492 4.66795 4.66795C4.54492 4.79099 4.39472 4.8834 4.22944 4.93777L1 5.99998L4.22944 7.0622C4.39472 7.11657 4.54492 7.20898 4.66795 7.33202C4.79099 7.45505 4.8834 7.60525 4.93777 7.77056L5.99998 11L7.0622 7.77056C7.11657 7.60525 7.20898 7.45505 7.33202 7.33202C7.45505 7.20898 7.60525 7.11657 7.77056 7.0622L11 5.99998L7.77056 4.93777C7.60525 4.8834 7.45505 4.79099 7.33202 4.66795C7.20898 4.54492 7.11657 4.39472 7.0622 4.22944L5.99998 1Z" fill="black" style="fill:black;fill-opacity:1;"/>
<path opacity="0.6" d="M2 0L1.57511 1.29178C1.55336 1.35789 1.5164 1.41797 1.46718 1.46718C1.41797 1.5164 1.35789 1.55336 1.29178 1.57511L0 2L1.29178 2.42488C1.35789 2.44663 1.41797 2.4836 1.46718 2.53281C1.5164 2.58202 1.55336 2.6421 1.57511 2.70823L2 4L2.42488 2.70823C2.44663 2.6421 2.4836 2.58202 2.53281 2.53281C2.58202 2.4836 2.6421 2.44663 2.70823 2.42488L4 2L2.70823 1.57511C2.6421 1.55336 2.58202 1.5164 2.53281 1.46718C2.4836 1.41797 2.44663 1.35789 2.42488 1.29178L2 0Z" fill="black" style="fill:black;fill-opacity:1;"/>
<path opacity="0.6" d="M10 8L9.57511 9.29178C9.55336 9.35789 9.5164 9.41797 9.46718 9.46718C9.41797 9.5164 9.35789 9.55336 9.29178 9.57511L8 10L9.29178 10.4249C9.35789 10.4466 9.41797 10.4836 9.46718 10.5328C9.5164 10.582 9.55336 10.6421 9.57511 10.7082L10 12L10.4249 10.7082C10.4466 10.6421 10.4836 10.582 10.5328 10.5328C10.582 10.4836 10.6421 10.4466 10.7082 10.4249L12 10L10.7082 9.57511C10.6421 9.55336 10.582 9.5164 10.5328 9.46718C10.4836 9.41797 10.4466 9.35789 10.4249 9.29178L10 8Z" fill="black" style="fill:black;fill-opacity:1;"/>
</g>
<defs>
<clipPath id="clip0_4123_3862">
<rect width="12" height="12" fill="white" style="fill:white;fill-opacity:1;"/>
</clipPath>
</defs>
</svg>
